<svg xmlns="http://www.w3.org/2000/svg" 			x="0px" y="0px" width="200px" height="200px" 			viewBox="0 0 200 200"><path stroke="black" stroke-width="5" 			fill="#000000" d="M 0.0 1.0 L 0.0 0.0 L 0.0 0.0 Z"></path><path stroke="black" stroke-width="5" 			fill="#000000" d="M 1.0 2.0 L 0.0 0.0 L 0.0 0.0 Z"></path><path stroke="black" stroke-width="5" 			fill="#000000" d="M 1.0 2.0 L 0.0 0.0 L 0.0 0.0 Z"></path><path stroke="black" stroke-width="5" 			fill="#000000" d="M 0.0 1.0 L 1.0 0.0 L 0.0 0.0 Z"></path><path stroke="black" stroke-width="5" 			fill="#000000" d="M 0.0 1.0 L 0.0 0.0 L 0.0 0.0 Z"></path><path stroke="black" stroke-width="5" 			fill="#000000" d="M 1.0 1.0 L 0.0 0.0 L 0.0 0.0 Z"></path><path stroke="black" stroke-width="5" 			fill="#000000" d="M 0.0 2.0 L 0.0 0.0 L 0.0 0.0 Z"></path><path stroke="black" stroke-width="5" 			fill="#000000" d="M 0.0 2.0 L 1.0 0.0 L 0.0 0.0 Z"></path><path stroke="black" stroke-width="5" 			fill="#000000" d="M 0.0 2.0 L 1.0 0.0 L 0.0 0.0 Z"></path><path stroke="black" stroke-width="5" 			fill="#000000" d="M 0.0 1.0 L 1.0 0.0 L 0.0 0.0 Z"></path><path stroke="black" stroke-width="5" 			fill="#000000" d="M 0.0 1.0 L 1.0 0.0 L 0.0 0.0 Z"></path><path stroke="black" stroke-width="5" 			fill="#000000" d="M 1.0 2.0 L 0.0 0.0 L 0.0 0.0 Z"></path><path stroke="black" stroke-width="5" 			fill="#FF0000" d="M 0.0 1.0 L 0.0 0.0 L 0.0 0.0 Z"></path><path stroke="black" stroke-width="5" 			fill="#000000" d="M 0.0 1.0 L 0.0 0.0 L 0.0 0.0 Z"></path><path stroke="black" stroke-width="5" 			fill="#000000" d="M 0.0 1.0 L 0.0 0.0 L 0.0 0.0 Z"></path><path stroke="black" stroke-width="5" 			fill="#000000" d="M 0.0 0.0 L 1.0 0.0 L 0.0 0.0 Z"></path><path stroke="black" stroke-width="5" 			fill="#FF0000" d="M 0.0 2.0 L 0.0 0.0 L 0.0 0.0 Z"></path><path stroke="black" stroke-width="5" 			fill="#000000" d="M 0.0 1.0 L 0.0 0.0 L 0.0 0.0 Z"></path><path stroke="black" stroke-width="5" 			fill="#000000" d="M 0.0 2.0 L 1.0 0.0 L 0.0 0.0 Z"></path><path stroke="black" stroke-width="5" 			fill="#000000" d="M 1.0 2.0 L 1.0 0.0 L 0.0 0.0 Z"></path><path stroke="black" stroke-width="5" 			fill="#000000" d="M 0.0 1.0 L 0.0 0.0 L 0.0 0.0 Z"></path><path stroke="black" stroke-width="5" 			fill="#000000" d="M 0.0 2.0 L 1.0 0.0 L 0.0 0.0 Z"></path><path stroke="black" stroke-width="5" 			fill="#000000" d="M 0.0 1.0 L 0.0 0.0 L 0.0 0.0 Z"></path><path stroke="black" stroke-width="5" 			fill="#000000" d="M 1.0 1.0 L 0.0 0.0 L 0.0 0.0 Z"></path><path stroke="black" stroke-width="5" 			fill="#000000" d="M 0.0 1.0 L 0.0 0.0 L 0.0 0.0 Z"></path><path stroke="black" stroke-width="5" 			fill="#000000" d="M 0.0 1.0 L 0.0 0.0 L 0.0 0.0 Z"></path><path stroke="black" stroke-width="5" 			fill="#000000" d="M 0.0 0.0 L 0.0 0.0 L 0.0 0.0 Z"></path><path stroke="black" stroke-width="5" 			fill="#000000" d="M 0.0 1.0 L 0.0 0.0 L 0.0 0.0 Z"></path><path stroke="black" stroke-width="5" 			fill="#000000" d="M 0.0 1.0 L 0.0 0.0 L 1.0 0.0 Z"></path><path stroke="black" stroke-width="5" 			fill="#000000" d="M 0.0 1.0 L 1.0 0.0 L 0.0 0.0 Z"></path><path stroke="black" stroke-width="5" 			fill="#000000" d="M 0.0 1.0 L 0.0 0.0 L 0.0 0.0 Z"></path><path stroke="black" stroke-width="5" 			fill="#000000" d="M 0.0 2.0 L 0.0 0.0 L 0.0 0.0 Z"></path><path stroke="black" stroke-width="5" 			fill="#000000" d="M 1.0 1.0 L 0.0 0.0 L 0.0 0.0 Z"></path><path stroke="black" stroke-width="5" 			fill="#000000" d="M 0.0 1.0 L 0.0 0.0 L 0.0 0.0 Z"></path><path stroke="black" stroke-width="5" 			fill="#000000" d="M 1.0 1.0 L 0.0 0.0 L 0.0 0.0 Z"></path><path stroke="black" stroke-width="5" 			fill="#000000" d="M 0.0 2.0 L 0.0 0.0 L 0.0 1.0 Z"></path><path stroke="black" stroke-width="5" 			fill="#000000" d="M 0.0 1.0 L 0.0 0.0 L 0.0 0.0 Z"></path><path stroke="black" stroke-width="5" 			fill="#000000" d="M 0.0 2.0 L 0.0 0.0 L 0.0 0.0 Z"></path><path stroke="black" stroke-width="5" 			fill="#000000" d="M 0.0 2.0 L 1.0 0.0 L 0.0 0.0 Z"></path><path stroke="black" stroke-width="5" 			fill="#000000" d="M 0.0 1.0 L 0.0 0.0 L 0.0 0.0 Z"></path><path stroke="black" stroke-width="5" 			fill="#000000" d="M 0.0 1.0 L 0.0 0.0 L 0.0 0.0 Z"></path><path stroke="black" stroke-width="5" 			fill="#000000" d="M 0.0 0.0 L 0.0 0.0 L 0.0 0.0 Z"></path><path stroke="black" stroke-width="5" 			fill="#000000" d="M 1.0 2.0 L 0.0 0.0 L 0.0 0.0 Z"></path><path stroke="black" stroke-width="5" 			fill="#000000" d="M 0.0 1.0 L 0.0 0.0 L 0.0 0.0 Z"></path><path stroke="black" stroke-width="5" 			fill="#000000" d="M 0.0 2.0 L 1.0 0.0 L 0.0 0.0 Z"></path><path stroke="black" stroke-width="5" 			fill="#000000" d="M 0.0 1.0 L 0.0 0.0 L 0.0 0.0 Z"></path><path stroke="black" stroke-width="5" 			fill="#000000" d="M 0.0 0.0 L 0.0 0.0 L 0.0 0.0 Z"></path><path stroke="black" stroke-width="5" 			fill="#000000" d="M 0.0 1.0 L 0.0 0.0 L 0.0 0.0 Z"></path><path stroke="black" stroke-width="5" 			fill="#000000" d="M 0.0 1.0 L 0.0 0.0 L 0.0 0.0 Z"></path><path stroke="black" stroke-width="5" 			fill="#000000" d="M 1.0 1.0 L 0.0 0.0 L 0.0 0.0 Z"></path><path stroke="black" stroke-width="5" 			fill="#000000" d="M 0.0 2.0 L 1.0 0.0 L 0.0 0.0 Z"></path><path stroke="black" stroke-width="5" 			fill="#000000" d="M 0.0 1.0 L 0.0 0.0 L 0.0 0.0 Z"></path><path stroke="black" stroke-width="5" 			fill="#000000" d="M 0.0 2.0 L 0.0 0.0 L 0.0 0.0 Z"></path><path stroke="black" stroke-width="5" 			fill="#000000" d="M 0.0 1.0 L 0.0 0.0 L 0.0 0.0 Z"></path><path stroke="black" stroke-width="5" 			fill="#000000" d="M 0.0 1.0 L 0.0 0.0 L 0.0 0.0 Z"></path><path stroke="black" stroke-width="5" 			fill="#000000" d="M 0.0 1.0 L 0.0 0.0 L 0.0 0.0 Z"></path><path stroke="black" stroke-width="5" 			fill="#000000" d="M 0.0 1.0 L 1.0 0.0 L 0.0 0.0 Z"></path><path stroke="black" stroke-width="5" 			fill="#000000" d="M 0.0 1.0 L 1.0 0.0 L 0.0 0.0 Z"></path><path stroke="black" stroke-width="5" 			fill="#000000" d="M 1.0 1.0 L 0.0 0.0 L 0.0 0.0 Z"></path><path stroke="black" stroke-width="5" 			fill="#000000" d="M 0.0 2.0 L 1.0 0.0 L 0.0 0.0 Z"></path><path stroke="black" stroke-width="5" 			fill="#000000" d="M 0.0 1.0 L 2.0 0.0 L 0.0 0.0 Z"></path><path stroke="black" stroke-width="5" 			fill="#000000" d="M 0.0 1.0 L 0.0 0.0 L 0.0 0.0 Z"></path><path stroke="black" stroke-width="5" 			fill="#000000" d="M 0.0 0.0 L 0.0 0.0 L 0.0 0.0 Z"></path><path stroke="black" stroke-width="5" 			fill="#000000" d="M 0.0 1.0 L 0.0 0.0 L 0.0 0.0 Z"></path><path stroke="black" stroke-width="5" 			fill="#000000" d="M 0.0 2.0 L 1.0 0.0 L 0.0 0.0 Z"></path><path stroke="black" stroke-width="5" 			fill="#000000" d="M 0.0 1.0 L 0.0 0.0 L 0.0 0.0 Z"></path><path stroke="black" stroke-width="5" 			fill="#000000" d="M 0.0 1.0 L 1.0 0.0 L 0.0 0.0 Z"></path><path stroke="black" stroke-width="5" 			fill="#000000" d="M 0.0 1.0 L 0.0 0.0 L 0.0 0.0 Z"></path><path stroke="black" stroke-width="5" 			fill="#000000" d="M 1.0 1.0 L 0.0 0.0 L 0.0 0.0 Z"></path><path stroke="black" stroke-width="5" 			fill="#000000" d="M 0.0 1.0 L 0.0 0.0 L 0.0 0.0 Z"></path><path stroke="black" stroke-width="5" 			fill="#000000" d="M 0.0 1.0 L 0.0 0.0 L 0.0 0.0 Z"></path><path stroke="black" stroke-width="5" 			fill="#000000" d="M 0.0 0.0 L 1.0 0.0 L 0.0 0.0 Z"></path><path stroke="black" stroke-width="5" 			fill="#000000" d="M 1.0 2.0 L 0.0 0.0 L 0.0 0.0 Z"></path><path stroke="black" stroke-width="5" 			fill="#000000" d="M 1.0 1.0 L 0.0 0.0 L 0.0 0.0 Z"></path><path stroke="black" stroke-width="5" 			fill="#000000" d="M 0.0 2.0 L 0.0 0.0 L 0.0 0.0 Z"></path><path stroke="black" stroke-width="5" 			fill="#000000" d="M 0.0 2.0 L 1.0 0.0 L 0.0 0.0 Z"></path><path stroke="black" stroke-width="5" 			fill="#000000" d="M 0.0 1.0 L 0.0 0.0 L 0.0 0.0 Z"></path><path stroke="black" stroke-width="5" 			fill="#000000" d="M 0.0 1.0 L 1.0 0.0 L 0.0 0.0 Z"></path><path stroke="black" stroke-width="5" 			fill="#000000" d="M 0.0 1.0 L 0.0 0.0 L 0.0 0.0 Z"></path><path stroke="black" stroke-width="5" 			fill="#000000" d="M 1.0 1.0 L 0.0 0.0 L 0.0 0.0 Z"></path><path stroke="black" stroke-width="5" 			fill="#000000" d="M 1.0 1.0 L 0.0 0.0 L 0.0 0.0 Z"></path><path stroke="black" stroke-width="5" 			fill="#000000" d="M 1.0 1.0 L 0.0 0.0 L 0.0 0.0 Z"></path><path stroke="black" stroke-width="5" 			fill="#000000" d="M 0.0 1.0 L 0.0 0.0 L 0.0 0.0 Z"></path><path stroke="black" stroke-width="5" 			fill="#000000" d="M 0.0 1.0 L 0.0 0.0 L 0.0 0.0 Z"></path><path stroke="black" stroke-width="5" 			fill="#000000" d="M 0.0 0.0 L 0.0 0.0 L 0.0 0.0 Z"></path><path stroke="black" stroke-width="5" 			fill="#000000" d="M 1.0 2.0 L 0.0 0.0 L 0.0 1.0 Z"></path><path stroke="black" stroke-width="5" 			fill="#000000" d="M 1.0 1.0 L 0.0 0.0 L 0.0 0.0 Z"></path><path stroke="black" stroke-width="5" 			fill="#000000" d="M 0.0 2.0 L 0.0 0.0 L 0.0 0.0 Z"></path><path stroke="black" stroke-width="5" 			fill="#000000" d="M 0.0 1.0 L 0.0 0.0 L 0.0 1.0 Z"></path><path stroke="black" stroke-width="5" 			fill="#000000" d="M 0.0 1.0 L 1.0 0.0 L 0.0 0.0 Z"></path><path stroke="black" stroke-width="5" 			fill="#000000" d="M 0.0 1.0 L 0.0 0.0 L 0.0 0.0 Z"></path><path stroke="black" stroke-width="5" 			fill="#000000" d="M 0.0 1.0 L 0.0 0.0 L 0.0 0.0 Z"></path><path stroke="black" stroke-width="5" 			fill="#000000" d="M 0.0 1.0 L 1.0 0.0 L 0.0 0.0 Z"></path><path stroke="black" stroke-width="5" 			fill="#000000" d="M 0.0 1.0 L 0.0 0.0 L 0.0 0.0 Z"></path><path stroke="black" stroke-width="5" 			fill="#000000" d="M 0.0 2.0 L 0.0 0.0 L 0.0 0.0 Z"></path><path stroke="black" stroke-width="5" 			fill="#000000" d="M 0.0 2.0 L 0.0 0.0 L 0.0 0.0 Z"></path><path stroke="black" stroke-width="5" 			fill="#000000" d="M 0.0 1.0 L 0.0 0.0 L 0.0 0.0 Z"></path><path stroke="black" stroke-width="5" 			fill="#000000" d="M 0.0 2.0 L 0.0 0.0 L 0.0 0.0 Z"></path><path stroke="black" stroke-width="5" 			fill="#000000" d="M 0.0 2.0 L 0.0 0.0 L 0.0 0.0 Z"></path><path stroke="black" stroke-width="5" 			fill="#000000" d="M 0.0 1.0 L 0.0 0.0 L 0.0 0.0 Z"></path><path stroke="black" stroke-width="5" 			fill="#000000" d="M 0.0 1.0 L 0.0 0.0 L 0.0 0.0 Z"></path><path stroke="black" stroke-width="5" 			fill="#000000" d="M 0.0 2.0 L 0.0 0.0 L 0.0 0.0 Z"></path><path stroke="black" stroke-width="5" 			fill="#000000" d="M 0.0 1.0 L 1.0 0.0 L 0.0 0.0 Z"></path><path stroke="black" stroke-width="5" 			fill="#000000" d="M 0.0 1.0 L 0.0 0.0 L 0.0 0.0 Z"></path><path stroke="black" stroke-width="5" 			fill="#000000" d="M 1.0 1.0 L 0.0 0.0 L 0.0 0.0 Z"></path><path stroke="black" stroke-width="5" 			fill="#000000" d="M 1.0 2.0 L 2.0 0.0 L 0.0 0.0 Z"></path><path stroke="black" stroke-width="5" 			fill="#000000" d="M 0.0 2.0 L 0.0 0.0 L 0.0 0.0 Z"></path><path stroke="black" stroke-width="5" 			fill="#000000" d="M 1.0 1.0 L 0.0 0.0 L 0.0 0.0 Z"></path><path stroke="black" stroke-width="5" 			fill="#000000" d="M 0.0 1.0 L 0.0 0.0 L 0.0 0.0 Z"></path><path stroke="black" stroke-width="5" 			fill="#000000" d="M 0.0 1.0 L 1.0 0.0 L 0.0 0.0 Z"></path><path stroke="black" stroke-width="5" 			fill="#000000" d="M 0.0 0.0 L 0.0 0.0 L 0.0 0.0 Z"></path><path stroke="black" stroke-width="5" 			fill="#000000" d="M 1.0 1.0 L 0.0 0.0 L 0.0 0.0 Z"></path><path stroke="black" stroke-width="5" 			fill="#000000" d="M 1.0 2.0 L 1.0 0.0 L 0.0 1.0 Z"></path><path stroke="black" stroke-width="5" 			fill="#000000" d="M 1.0 3.0 L 0.0 0.0 L 0.0 0.0 Z"></path><path stroke="black" stroke-width="5" 			fill="#000000" d="M 0.0 2.0 L 0.0 0.0 L 0.0 0.0 Z"></path><path stroke="black" stroke-width="5" 			fill="#000000" d="M 0.0 1.0 L 1.0 0.0 L 0.0 0.0 Z"></path><path stroke="black" stroke-width="5" 			fill="#000000" d="M 0.0 1.0 L 0.0 0.0 L 0.0 0.0 Z"></path><path stroke="black" stroke-width="5" 			fill="#FF0000" d="M 0.0 0.0 L 0.0 0.0 L 0.0 0.0 Z"></path><path stroke="black" stroke-width="5" 			fill="#000000" d="M 1.0 1.0 L 0.0 0.0 L 0.0 0.0 Z"></path><path stroke="black" stroke-width="5" 			fill="#000000" d="M 0.0 1.0 L 0.0 0.0 L 0.0 0.0 Z"></path><path stroke="black" stroke-width="5" 			fill="#000000" d="M 0.0 2.0 L 0.0 0.0 L 0.0 1.0 Z"></path><path stroke="black" stroke-width="5" 			fill="#000000" d="M 0.0 1.0 L 0.0 0.0 L 0.0 0.0 Z"></path><path stroke="black" stroke-width="5" 			fill="#000000" d="M 0.0 1.0 L 0.0 0.0 L 0.0 0.0 Z"></path><path stroke="black" stroke-width="5" 			fill="#000000" d="M 0.0 2.0 L 0.0 0.0 L 0.0 0.0 Z"></path><path stroke="black" stroke-width="5" 			fill="#000000" d="M 0.0 2.0 L 0.0 0.0 L 0.0 0.0 Z"></path><path stroke="black" stroke-width="5" 			fill="#000000" d="M 0.0 1.0 L 1.0 0.0 L 0.0 0.0 Z"></path><path stroke="black" stroke-width="5" 			fill="#000000" d="M 0.0 0.0 L 0.0 0.0 L 1.0 0.0 Z"></path><path stroke="black" stroke-width="5" 			fill="#000000" d="M 0.0 1.0 L 1.0 0.0 L 0.0 0.0 Z"></path><path stroke="black" stroke-width="5" 			fill="#000000" d="M 0.0 2.0 L 0.0 0.0 L 0.0 0.0 Z"></path><path stroke="black" stroke-width="5" 			fill="#000000" d="M 0.0 1.0 L 0.0 0.0 L 0.0 0.0 Z"></path><path stroke="black" stroke-width="5" 			fill="#000000" d="M 0.0 1.0 L 1.0 0.0 L 0.0 0.0 Z"></path><path stroke="black" stroke-width="5" 			fill="#000000" d="M 0.0 1.0 L 0.0 0.0 L 0.0 0.0 Z"></path><path stroke="black" stroke-width="5" 			fill="#FF0000" d="M 0.0 1.0 L 0.0 0.0 L 0.0 0.0 Z"></path><path stroke="black" stroke-width="5" 			fill="#000000" d="M 0.0 2.0 L 0.0 0.0 L 0.0 0.0 Z"></path><path stroke="black" stroke-width="5" 			fill="#000000" d="M 0.0 1.0 L 0.0 0.0 L 0.0 0.0 Z"></path><path stroke="black" stroke-width="5" 			fill="#000000" d="M 0.0 1.0 L 0.0 0.0 L 0.0 0.0 Z"></path><path stroke="black" stroke-width="5" 			fill="#000000" d="M 0.0 1.0 L 0.0 0.0 L 0.0 0.0 Z"></path><path stroke="black" stroke-width="5" 			fill="#000000" d="M 0.0 1.0 L 0.0 0.0 L 0.0 0.0 Z"></path><path stroke="black" stroke-width="5" 			fill="#000000" d="M 1.0 2.0 L 1.0 0.0 L 0.0 0.0 Z"></path><path stroke="black" stroke-width="5" 			fill="#000000" d="M 0.0 1.0 L 0.0 0.0 L 0.0 0.0 Z"></path><path stroke="black" stroke-width="5" 			fill="#000000" d="M 1.0 1.0 L 0.0 0.0 L 0.0 0.0 Z"></path><path stroke="black" stroke-width="5" 			fill="#000000" d="M 0.0 1.0 L 0.0 0.0 L 0.0 0.0 Z"></path><path stroke="black" stroke-width="5" 			fill="#000000" d="M 1.0 0.0 L 0.0 0.0 L 0.0 0.0 Z"></path><path stroke="black" stroke-width="5" 			fill="#000000" d="M 0.0 1.0 L 1.0 0.0 L 0.0 0.0 Z"></path><path stroke="black" stroke-width="5" 			fill="#000000" d="M 0.0 2.0 L 0.0 0.0 L 0.0 0.0 Z"></path><path stroke="black" stroke-width="5" 			fill="#000000" d="M 0.0 1.0 L 1.0 0.0 L 0.0 0.0 Z"></path><path stroke="black" stroke-width="5" 			fill="#000000" d="M 0.0 2.0 L 0.0 0.0 L 0.0 0.0 Z"></path><path stroke="black" stroke-width="5" 			fill="#000000" d="M 0.0 1.0 L 0.0 0.0 L 0.0 0.0 Z"></path><path stroke="black" stroke-width="5" 			fill="#000000" d="M 0.0 1.0 L 0.0 0.0 L 0.0 0.0 Z"></path><path stroke="black" stroke-width="5" 			fill="#000000" d="M 0.0 1.0 L 0.0 0.0 L 0.0 0.0 Z"></path><path stroke="black" stroke-width="5" 			fill="#000000" d="M 0.0 2.0 L 1.0 0.0 L 0.0 0.0 Z"></path><path stroke="black" stroke-width="5" 			fill="#000000" d="M 0.0 2.0 L 1.0 0.0 L 0.0 0.0 Z"></path><path stroke="black" stroke-width="5" 			fill="#000000" d="M 1.0 1.0 L 1.0 0.0 L 0.0 0.0 Z"></path><path stroke="black" stroke-width="5" 			fill="#000000" d="M 0.0 2.0 L 0.0 0.0 L 0.0 0.0 Z"></path><path stroke="black" stroke-width="5" 			fill="#000000" d="M 0.0 2.0 L 0.0 0.0 L 0.0 0.0 Z"></path><path stroke="black" stroke-width="5" 			fill="#000000" d="M 0.0 0.0 L 1.0 0.0 L 0.0 0.0 Z"></path><path stroke="black" stroke-width="5" 			fill="#000000" d="M 0.0 1.0 L 0.0 0.0 L 0.0 0.0 Z"></path><path stroke="black" stroke-width="5" 			fill="#000000" d="M 0.0 2.0 L 1.0 0.0 L 0.0 0.0 Z"></path><path stroke="black" stroke-width="5" 			fill="#000000" d="M 0.0 2.0 L 0.0 0.0 L 0.0 0.0 Z"></path><path stroke="black" stroke-width="5" 			fill="#000000" d="M 1.0 2.0 L 0.0 0.0 L 0.0 0.0 Z"></path><path stroke="black" stroke-width="5" 			fill="#000000" d="M 0.0 1.0 L 1.0 0.0 L 0.0 0.0 Z"></path><path stroke="black" stroke-width="5" 			fill="#000000" d="M 1.0 1.0 L 0.0 0.0 L 0.0 0.0 Z"></path><path stroke="black" stroke-width="5" 			fill="#000000" d="M 0.0 0.0 L 0.0 0.0 L 0.0 0.0 Z"></path><path stroke="black" stroke-width="5" 			fill="#000000" d="M 0.0 2.0 L 1.0 0.0 L 0.0 0.0 Z"></path><path stroke="black" stroke-width="5" 			fill="#000000" d="M 0.0 1.0 L 0.0 0.0 L 0.0 0.0 Z"></path><path stroke="black" stroke-width="5" 			fill="#000000" d="M 0.0 2.0 L 0.0 0.0 L 0.0 0.0 Z"></path><path stroke="black" stroke-width="5" 			fill="#000000" d="M 0.0 1.0 L 0.0 0.0 L 0.0 0.0 Z"></path><path stroke="black" stroke-width="5" 			fill="#000000" d="M 0.0 2.0 L 0.0 0.0 L 0.0 0.0 Z"></path><path stroke="black" stroke-width="5" 			fill="#000000" d="M 0.0 1.0 L 2.0 0.0 L 0.0 0.0 Z"></path><path stroke="black" stroke-width="5" 			fill="#000000" d="M 0.0 2.0 L 0.0 0.0 L 0.0 0.0 Z"></path><path stroke="black" stroke-width="5" 			fill="#000000" d="M 0.0 1.0 L 0.0 0.0 L 0.0 0.0 Z"></path><path stroke="black" stroke-width="5" 			fill="#000000" d="M 0.0 1.0 L 1.0 0.0 L 0.0 0.0 Z"></path><path stroke="black" stroke-width="5" 			fill="#000000" d="M 0.0 1.0 L 0.0 0.0 L 0.0 1.0 Z"></path><path stroke="black" stroke-width="5" 			fill="#000000" d="M 0.0 0.0 L 0.0 0.0 L 0.0 0.0 Z"></path><path stroke="black" stroke-width="5" 			fill="#000000" d="M 0.0 2.0 L 0.0 0.0 L 0.0 0.0 Z"></path><path stroke="black" stroke-width="5" 			fill="#000000" d="M 0.0 2.0 L 0.0 0.0 L 0.0 0.0 Z"></path><path stroke="black" stroke-width="5" 			fill="#000000" d="M 0.0 2.0 L 1.0 0.0 L 0.0 0.0 Z"></path><path stroke="black" stroke-width="5" 			fill="#000000" d="M 0.0 1.0 L 0.0 0.0 L 0.0 0.0 Z"></path><path stroke="black" stroke-width="5" 			fill="#000000" d="M 0.0 2.0 L 1.0 0.0 L 0.0 0.0 Z"></path><path stroke="black" stroke-width="5" 			fill="#000000" d="M 0.0 1.0 L 1.0 0.0 L 0.0 0.0 Z"></path><path stroke="black" stroke-width="5" 			fill="#000000" d="M 0.0 1.0 L 0.0 0.0 L 0.0 0.0 Z"></path><path stroke="black" stroke-width="5" 			fill="#000000" d="M 0.0 1.0 L 0.0 0.0 L 0.0 0.0 Z"></path><path stroke="black" stroke-width="5" 			fill="#000000" d="M 1.0 2.0 L 1.0 0.0 L 0.0 0.0 Z"></path><path stroke="black" stroke-width="5" 			fill="#000000" d="M 0.0 2.0 L 1.0 0.0 L 0.0 0.0 Z"></path><path stroke="black" stroke-width="5" 			fill="#000000" d="M 1.0 2.0 L 0.0 0.0 L 0.0 0.0 Z"></path><path stroke="black" stroke-width="5" 			fill="#000000" d="M 0.0 1.0 L 0.0 0.0 L 0.0 0.0 Z"></path><path stroke="black" stroke-width="5" 			fill="#000000" d="M 0.0 1.0 L 1.0 0.0 L 0.0 0.0 Z"></path><path stroke="black" stroke-width="5" 			fill="#000000" d="M 1.0 1.0 L 0.0 0.0 L 0.0 0.0 Z"></path><path stroke="black" stroke-width="5" 			fill="#000000" d="M 0.0 1.0 L 0.0 0.0 L 1.0 0.0 Z"></path><path stroke="black" stroke-width="5" 			fill="#000000" d="M 0.0 2.0 L 0.0 0.0 L 0.0 0.0 Z"></path><path stroke="black" stroke-width="5" 			fill="#000000" d="M 1.0 1.0 L 0.0 0.0 L 0.0 0.0 Z"></path><path stroke="black" stroke-width="5" 			fill="#000000" d="M 0.0 2.0 L 0.0 0.0 L 0.0 0.0 Z"></path><path stroke="black" stroke-width="5" 			fill="#000000" d="M 0.0 3.0 L 0.0 0.0 L 0.0 0.0 Z"></path><path stroke="black" stroke-width="5" 			fill="#000000" d="M 0.0 1.0 L 0.0 0.0 L 0.0 0.0 Z"></path><path stroke="black" stroke-width="5" 			fill="#000000" d="M 0.0 2.0 L 1.0 0.0 L 0.0 0.0 Z"></path><path stroke="black" stroke-width="5" 			fill="#000000" d="M 0.0 1.0 L 1.0 0.0 L 0.0 0.0 Z"></path><path stroke="black" stroke-width="5" 			fill="#000000" d="M 0.0 3.0 L 0.0 0.0 L 0.0 0.0 Z"></path><path stroke="black" stroke-width="5" 			fill="#000000" d="M 1.0 1.0 L 0.0 0.0 L 0.0 0.0 Z"></path><path stroke="black" stroke-width="5" 			fill="#000000" d="M 0.0 2.0 L 0.0 0.0 L 0.0 0.0 Z"></path><path stroke="black" stroke-width="5" 			fill="#000000" d="M 0.0 2.0 L 1.0 0.0 L 0.0 0.0 Z"></path><path stroke="black" stroke-width="5" 			fill="#000000" d="M 0.0 2.0 L 0.0 0.0 L 0.0 0.0 Z"></path><path stroke="black" stroke-width="5" 			fill="#000000" d="M 0.0 0.0 L 1.0 0.0 L 0.0 0.0 Z"></path><path stroke="black" stroke-width="5" 			fill="#000000" d="M 0.0 1.0 L 1.0 0.0 L 0.0 0.0 Z"></path><path stroke="black" stroke-width="5" 			fill="#000000" d="M 0.0 2.0 L 0.0 0.0 L 0.0 0.0 Z"></path><path stroke="black" stroke-width="5" 			fill="#000000" d="M 0.0 2.0 L 0.0 0.0 L 0.0 0.0 Z"></path><path stroke="black" stroke-width="5" 			fill="#000000" d="M 1.0 1.0 L 0.0 0.0 L 0.0 0.0 Z"></path><path stroke="black" stroke-width="5" 			fill="#000000" d="M 0.0 1.0 L 0.0 0.0 L 0.0 0.0 Z"></path><path stroke="black" stroke-width="5" 			fill="#000000" d="M 0.0 2.0 L 1.0 0.0 L 0.0 0.0 Z"></path><path stroke="black" stroke-width="5" 			fill="#000000" d="M 0.0 2.0 L 0.0 0.0 L 0.0 0.0 Z"></path><path stroke="black" stroke-width="5" 			fill="#000000" d="M 0.0 1.0 L 0.0 0.0 L 0.0 0.0 Z"></path><path stroke="black" stroke-width="5" 			fill="#000000" d="M 0.0 1.0 L 0.0 0.0 L 0.0 0.0 Z"></path></svg>